HIERARCHY
ROOT Hips
{
	OFFSET -0.179506 -22.333345 2.821913
	CHANNELS 6 Xposition Yposition Zposition Zrotation Yrotation Xrotation 
	JOINT LeftUpLeg
	{
		OFFSET 6.951974 -9.140623 -0.681533
		CHANNELS 3 Zrotation Yrotation Xrotation
		JOINT LeftLeg
		{
			OFFSET 3.427654 -37.519855 -0.449580
			CHANNELS 3 Zrotation Yrotation Xrotation
			JOINT LeftFoot
			{
				OFFSET -1.359570 -39.796059 -4.369333
				CHANNELS 3 Zrotation Yrotation Xrotation
				JOINT LeftToe
				{
					OFFSET 2.635814 -5.579078 11.928840
					CHANNELS 3 Zrotation Yrotation Xrotation
					End Site
					{
						OFFSET 0.000000 0.000000 0.000000
					}
				}
			}
		}
	}
	JOINT RightUpLeg
	{
		OFFSET -6.767048 -9.052170 -0.431982
		CHANNELS 3 Zrotation Yrotation Xrotation
		JOINT RightLeg
		{
			OFFSET -3.829005 -38.256897 -0.885003
			CHANNELS 3 Zrotation Yrotation Xrotation
			JOINT RightFoot
			{
				OFFSET 1.577377 -39.841461 -4.231180
				CHANNELS 3 Zrotation Yrotation Xrotation
				JOINT RightToe
				{
					OFFSET -2.537174 -4.814398 12.334795
					CHANNELS 3 Zrotation Yrotation Xrotation
					End Site
					{
						OFFSET 0.000000 0.000000 0.000000
					}
				}
			}
		}
	}
	JOINT Spine
	{
		OFFSET -0.253288 10.896323 -2.669631
		CHANNELS 3 Zrotation Yrotation Xrotation
		JOINT Spine1
		{
			OFFSET 0.548704 13.518043 0.109247
			CHANNELS 3 Zrotation Yrotation Xrotation
			JOINT Spine2
			{
				OFFSET 0.145701 5.292222 2.542457
				CHANNELS 3 Zrotation Yrotation Xrotation
				JOINT Neck
				{
					OFFSET -0.277840 21.387037 -4.285703
					CHANNELS 3 Zrotation Yrotation Xrotation
					JOINT Head
					{
						OFFSET 0.515184 6.496960 5.134897
						CHANNELS 3 Zrotation Yrotation Xrotation
						End Site
						{
							OFFSET 0.000000 0.000000 0.000000
						}
					}
				}
				JOINT LeftShoulder
				{
					OFFSET 7.884473 12.174932 -3.408961
					CHANNELS 3 Zrotation Yrotation Xrotation
					JOINT LeftArm
					{
						OFFSET 9.097692 3.046888 -0.886815
						CHANNELS 3 Zrotation Yrotation Xrotation
						JOINT LeftForeArm
						{
							OFFSET 25.961220 -1.277207 -2.745643
							CHANNELS 3 Zrotation Yrotation Xrotation
							JOINT LeftHand
							{
								OFFSET 24.923361 0.898606 -0.117091
								CHANNELS 3 Zrotation Yrotation Xrotation
								End Site
								{
									OFFSET 0.000000 0.000000 0.000000
								}
							}
						}
					}
				}
				JOINT RightShoulder
				{
					OFFSET -8.175920 11.883285 -3.861528
					CHANNELS 3 Zrotation Yrotation Xrotation
					JOINT RightArm
					{
						OFFSET -9.601238 3.255117 -0.914307
						CHANNELS 3 Zrotation Yrotation Xrotation
						JOINT RightForeArm
						{
							OFFSET -25.374195 -1.332924 -2.140099
							CHANNELS 3 Zrotation Yrotation Xrotation
							JOINT RightHand
							{
								OFFSET -25.529810 0.777228 -0.555919
								CHANNELS 3 Zrotation Yrotation Xrotation
								End Site
								{
									OFFSET 0.000000 0.000000 0.000000
								}
							}
						}
					}
				}
			}
		}
	}
}
MOTION
Frames: 9
Frame Time: 0.033333
7.883778 9.579334 99.302483 177.252350 -0.566494 85.963942 4.768384 2.459791 9.837109 -2.900887 -3.549662 -5.149092 3.351329 7.353496 -6.420817 nan nan nan -4.155592 -4.540731 9.682755 4.124657 -1.236465 -5.430164 5.768271 -4.066475 -1.872329 nan nan nan 0.406429 1.218371 6.469778 0.529963 -2.829884 2.538578 0.385793 -1.090711 1.709590 -1.974160 0.821831 -1.946387 -0.506511 -1.873182 2.179713 -25.537599 0.776778 6.431055 -59.730524 -6.540036 8.865949 8.999558 -25.510919 8.065254 -5.620829 -8.569816 -11.689967 25.289558 3.102105 5.767996 57.267198 5.201186 11.510709 -10.543680 20.104868 -4.881503 6.215313 4.433177 -10.754148 
7.865221 9.681211 99.324150 177.075342 -0.817255 86.306817 4.376526 1.841058 9.781016 -2.927712 -3.316333 -5.586142 2.527515 8.330244 -5.796965 nan nan nan -4.317408 -3.553646 9.493499 4.225759 -1.788232 -5.749742 5.845082 -4.411458 -1.675811 nan nan nan 0.071018 1.206055 5.168611 0.198100 -2.690156 3.739509 0.941718 -1.238918 1.199927 -2.944627 1.419092 -0.177228 1.026895 -2.123925 0.732270 -26.460364 -0.294460 7.314345 -59.605581 -6.558042 8.340387 10.795380 -23.722628 4.030442 -6.983872 -14.412325 -7.897791 25.553098 5.244583 6.949641 57.560488 4.418315 10.894656 -11.976938 19.136354 -6.331068 6.755867 10.280454 -12.439336 
7.864698 9.726516 99.296654 177.107163 -0.891051 86.208416 4.322695 1.733285 9.978634 -2.968640 -3.410852 -5.692660 2.433348 8.534888 -5.781110 nan nan nan -4.431400 -3.493248 9.684147 4.282524 -1.793630 -5.856485 5.856374 -4.494623 -1.714174 nan nan nan -0.026449 1.173040 5.296691 0.043828 -2.647148 3.654232 1.084683 -1.294670 1.187905 -3.236248 1.781338 0.273398 1.319247 -1.855796 0.758593 -26.452668 -0.359630 7.477389 -59.649919 -6.580967 8.167470 10.834104 -23.617343 3.468837 -6.711889 -14.772306 -7.574954 25.488666 5.361527 7.125216 57.734844 4.473776 10.880634 -12.013271 19.150198 -6.373295 6.363275 10.732318 -13.151028 
7.964288 9.677279 99.300423 176.981229 -0.956652 86.140210 4.388042 1.688515 10.019135 -3.123645 -3.420453 -5.620214 2.565193 8.671456 -5.867800 nan nan nan -4.383914 -3.284115 9.705329 4.222858 -1.801640 -5.838888 5.823220 -4.622352 -1.761340 nan nan nan -0.356770 1.215041 5.623777 0.073223 -2.597008 3.399479 1.257881 -1.200135 1.214274 -3.293500 1.891240 0.278922 1.480648 -1.799353 0.892130 -26.418362 -0.351074 7.525930 -59.702312 -6.646394 8.102653 10.939036 -23.565584 3.362495 -6.525092 -14.891654 -7.568561 25.439571 5.335189 7.095190 57.925763 4.442043 10.898859 -12.255547 19.250160 -6.430174 5.980478 10.803942 -13.491588 
7.970858 9.680855 99.305870 176.959670 -0.978928 86.153623 4.379898 1.718949 9.966622 -3.135790 -3.420479 -5.552781 2.524875 8.681516 -5.984174 nan nan nan -4.401088 -3.224730 9.700971 4.222602 -1.807932 -5.851412 5.845139 -4.661785 -1.774931 nan nan nan -0.428479 1.203350 5.671330 0.088715 -2.582692 3.348165 1.291813 -1.163762 1.201935 -3.272348 1.840650 0.308609 1.436907 -1.777180 0.860512 -26.545056 -0.258492 7.505515 -59.605766 -6.668696 8.105202 10.909386 -23.501817 3.381707 -6.279530 -15.013243 -7.569335 25.391943 5.260813 7.018987 58.014090 4.466610 10.893542 -12.311758 19.305912 -6.496125 5.568093 10.701125 -13.674980 
7.961471 9.700006 99.288345 176.977158 -1.001657 86.152765 4.472524 1.475273 10.119179 -3.445920 -3.238450 -5.774698 2.809233 8.549579 -6.134965 nan nan nan -4.502517 -3.003712 9.860555 4.268578 -1.679398 -6.065100 6.314278 -4.695067 -1.960129 nan nan nan -0.510205 1.164305 5.662264 0.127567 -2.562361 3.204619 1.379091 -1.138794 1.382491 -3.267812 1.653208 0.234974 1.231376 -1.882536 0.876809 -26.642201 -0.119448 7.628148 -59.701831 -6.920301 7.873289 10.979806 -23.255806 3.789649 -6.182150 -15.783132 -7.804806 25.156403 5.106748 6.878495 58.233905 4.596404 10.850222 -12.314845 19.254588 -6.257761 5.459622 10.992650 -14.070273 
7.952711 9.694240 99.304214 176.942185 -1.035801 86.323470 4.394315 1.221211 9.974973 -3.514864 -3.103157 -5.822608 3.050904 8.596861 -6.126578 nan nan nan -4.538933 -2.823233 9.694686 4.283256 -1.628922 -6.107583 6.444435 -4.781178 -2.006013 nan nan nan -0.580220 1.180804 5.316685 0.207329 -2.554531 3.361142 1.182888 -1.125412 1.805541 -3.180219 2.181493 -0.850400 1.387829 -2.271722 0.856963 -26.616437 0.046466 7.101726 -59.684555 -6.980888 8.064646 11.056899 -23.154017 3.841157 -6.336396 -16.343357 -7.592803 25.550081 4.952869 6.389992 57.884845 4.621366 11.062973 -12.281448 19.317085 -6.217165 5.681783 11.299429 -13.772547 
7.945410 9.674157 99.309464 176.893819 -0.997703 86.404012 4.446263 1.223784 9.875230 -3.570026 -3.053484 -5.774492 3.133135 8.584272 -6.142054 nan nan nan -4.497135 -2.781237 9.565059 4.278736 -1.618413 -6.057347 6.394874 -4.706588 -2.004409 nan nan nan -0.507974 1.193204 5.196564 0.216954 -2.569502 3.429489 1.127289 -1.118709 1.821909 -3.087535 2.145365 -0.969640 1.270029 -2.322651 0.732215 -26.689376 0.072380 7.018634 -59.589377 -6.859565 8.145995 11.087223 -23.377179 3.801259 -6.248901 -16.318656 -7.560253 25.606934 5.024157 6.443565 57.830618 4.512925 11.145462 -12.356576 19.611735 -6.316738 5.653541 11.286615 -13.832094 
7.941753 9.658749 99.313591 176.867359 -0.953964 86.424052 4.490094 1.252304 9.837108 -3.545721 -3.078027 -5.720218 3.111094 8.593797 -6.172284 nan nan nan -4.443424 -2.775536 9.529388 4.271914 -1.602007 -6.035985 6.377081 -4.656177 -1.998097 nan nan nan -0.442015 1.198649 5.184051 0.203574 -2.577077 3.451464 1.099670 -1.103097 1.790926 -3.070433 2.117790 -0.915691 1.235798 -2.307825 0.686426 -26.712670 0.078595 7.007683 -59.548587 -6.769353 8.200313 11.097292 -23.546174 3.819835 -6.153917 -16.258931 -7.551464 25.601953 5.058185 6.487160 57.856010 4.450585 11.186881 -12.384346 19.797724 -6.276484 5.626246 11.209576 -13.858546 
